<svg xmlns="http://www.w3.org/2000/svg" viewBox="0 0 256 256" width="256" height="256">
  <rect width="256" height="256" fill="#0e0e0e" rx="48"/>
  <g transform="translate(64, 48) scale(5.33)">
    <path d="M4.5 30V16.275C3.225 15.925 2.15625 15.225 1.29375 14.175C0.43125 13.125 0 11.9 0 10.5V0H3V10.5H4.5V0H7.5V10.5H9V0H12V10.5C12 11.9 11.5688 13.125 10.7063 14.175C9.84375 15.225 8.775 15.925 7.5 16.275V30H4.5V30M19.5 30V18H15V7.5C15 5.425 15.7313 3.65625 17.1938 2.19375C18.6563 0.73125 20.425 0 22.5 0V30H19.5V30" fill="#FF906D"/>
  </g>
</svg>
